<svg width="36" height="36" viewBox="0 0 36 36" fill="none" xmlns="http://www.w3.org/2000/svg">
  <path d="M18.3174 35.9922C27.9824 35.9922 35.8174 28.1572 35.8174 18.4922C35.8174 8.8272 27.9824 0.992188 18.3174 0.992188C8.6524 0.992188 0.817383 8.8272 0.817383 18.4922C0.817383 28.1572 8.6524 35.9922 18.3174 35.9922Z" fill="#25D366"/>
  <path fill-rule="evenodd" clip-rule="evenodd" d="M18.8949 28.2258H18.8906C17.149 28.2252 15.4377 27.7882 13.9178 26.9592L8.40137 28.4062L9.87765 23.0139C8.96701 21.4358 8.48783 19.6457 8.48861 17.8116C8.49089 12.0742 13.159 7.40625 18.8948 7.40625C21.6785 7.40745 24.2912 8.49115 26.2559 10.4581C28.2205 12.425 29.3019 15.0394 29.3008 17.8198C29.2985 23.556 24.6322 28.2234 18.8949 28.2258ZM14.1741 25.083L14.4899 25.2704C15.8179 26.0584 17.3401 26.4754 18.8921 26.476H18.8956C23.6627 26.476 27.5427 22.5959 27.5446 17.8269C27.5455 15.5158 26.6467 13.3428 25.0137 11.7079C23.3808 10.0731 21.2092 9.17228 18.899 9.17148C14.1282 9.17148 10.2482 13.0511 10.2463 17.8199C10.2456 19.4541 10.7029 21.0457 11.5687 22.4228L11.7743 22.75L10.9006 25.9417L14.1741 25.083ZM23.7816 20.0594C23.963 20.147 24.0854 20.2062 24.1377 20.2935C24.2027 20.4019 24.2027 20.9225 23.9861 21.53C23.7694 22.1373 22.7306 22.6916 22.231 22.7663C21.7831 22.8332 21.2162 22.8612 20.5934 22.6632C20.2157 22.5434 19.7314 22.3834 19.1111 22.1155C16.6735 21.063 15.0262 18.7005 14.7149 18.254C14.6931 18.2227 14.6778 18.2008 14.6693 18.1894L14.6672 18.1866C14.5296 18.003 13.6076 16.7729 13.6076 15.4997C13.6076 14.302 14.1959 13.6743 14.4667 13.3853C14.4853 13.3655 14.5024 13.3473 14.5176 13.3306C14.756 13.0703 15.0377 13.0052 15.211 13.0052C15.3843 13.0052 15.5579 13.0068 15.7093 13.0144C15.728 13.0154 15.7475 13.0152 15.7676 13.0151C15.9191 13.0142 16.108 13.0131 16.2944 13.4608C16.366 13.633 16.4709 13.8884 16.5816 14.1578C16.8053 14.7025 17.0525 15.3043 17.096 15.3914C17.161 15.5215 17.2044 15.6733 17.1177 15.8469C17.1047 15.8729 17.0927 15.8975 17.0812 15.921C17.0161 16.0539 16.9682 16.1516 16.8577 16.2806C16.8142 16.3314 16.7693 16.386 16.7244 16.4407C16.635 16.5497 16.5455 16.6586 16.4677 16.7362C16.3375 16.8658 16.202 17.0065 16.3537 17.2668C16.5053 17.5271 17.0272 18.3786 17.8001 19.068C18.631 19.8092 19.3532 20.1224 19.7192 20.2812C19.7907 20.3122 19.8486 20.3373 19.8911 20.3586C20.151 20.4888 20.3027 20.467 20.4544 20.2935C20.6061 20.12 21.1044 19.5342 21.2777 19.274C21.451 19.0138 21.6244 19.0571 21.8627 19.1438C22.1011 19.2307 23.3794 19.8596 23.6394 19.9898C23.6902 20.0152 23.7376 20.0381 23.7816 20.0594Z" fill="#FDFDFD"/>
</svg>
